<svg xmlns="http://www.w3.org/2000/svg" aria-hidden="true" data-prefix="fab" data-icon="nintendo-switch" class="svg-inline--fa fa-nintendo-switch fa-w-16" viewBox="0 0 496 512"><path d="M377.483 232.755c-25.855-.59-46.463 21.105-46.802 45.496-.355 25.336 20.318 45.681 43.479 46.971 27.801 1.553 49.087-21.17 49.098-45.583.011-25.85-19.744-46.409-45.775-46.884zm-91.543 22.827V32.372c0-6.38.087-6.467 6.647-6.467 23.111 0 46.233-.312 69.345.06 56.39.918 103.537 41.085 113.846 95.07 1.64 8.565 2.444 17.415 2.465 26.14.192 73.242.126 146.49.104 219.739-.022 50.366-30.6 94.6-77.517 111.977-13.037 4.832-26.626 7.15-40.51 7.242-22.243.159-44.496.044-66.744.044-7.637 0-7.637-.005-7.637-7.822V255.582M202.404 448.63V63.151h-5.018c-19.356 0-38.718-.142-58.08.077-6.444.076-12.96.59-19.296 1.738-36.312 6.56-64.693 40.67-64.715 77.588-.038 75.85-.23 151.7.126 227.551.104 22.647 9.445 41.844 26.058 57.298 15.95 14.84 35.153 21.373 56.701 21.46 20.083.082 40.167.022 60.25.005 1.262 0 2.525-.147 3.974-.24zm37.58-192.55c0 74.57 0 149.141-.005 223.713 0 5.816-.612 6.417-6.433 6.417-31.65-.011-63.294-.027-94.944-.033-32.378-.006-60.731-10.62-84.253-32.934-17.481-16.58-28.769-36.941-33.667-60.6-1.421-6.87-2.542-13.955-2.563-20.94-.176-77.026-1.17-154.079.283-231.077.919-48.267 25.676-83.18 69.237-104.198 16.043-7.746 33.3-10.589 51.088-10.545 31.502.077 63.01.011 94.512.005 6.526-.005 6.745.22 6.745 6.91v223.281" fill-rule="evenodd"/><path d="M89.837 163.705c-.69-22.401 18.158-43.14 42.975-43.058 24.205.082 43.643 18.279 43.49 44.036-.153 25.588-21.668 43.129-43.976 42.582-24.035-.595-42.643-19.312-42.49-43.56" fill-rule="evenodd"/></svg>