<?xml version="1.0" encoding="UTF-8" standalone="no"?>
<svg
   xmlns:dc="http://purl.org/dc/elements/1.1/"
   xmlns:cc="http://creativecommons.org/ns#"
   xmlns:rdf="http://www.w3.org/1999/02/22-rdf-syntax-ns#"
   xmlns:svg="http://www.w3.org/2000/svg"
   xmlns="http://www.w3.org/2000/svg"
   xmlns:sodipodi="http://sodipodi.sourceforge.net/DTD/sodipodi-0.dtd"
   xmlns:inkscape="http://www.inkscape.org/namespaces/inkscape"
   aria-hidden="true"
   data-prefix="fab"
   data-icon="telegram"
   class="svg-inline--fa fa-telegram fa-w-16"
   viewBox="0 0 496 512"
   version="1.1"
   id="svg4"
   sodipodi:docname="snowflake.svg"
   inkscape:version="0.92.4 (5da689c313, 2019-01-14)">
  <metadata
     id="metadata10">
    <rdf:RDF>
      <cc:Work
         rdf:about="">
        <dc:format>image/svg+xml</dc:format>
        <dc:type
           rdf:resource="http://purl.org/dc/dcmitype/StillImage" />
      </cc:Work>
    </rdf:RDF>
  </metadata>
  <defs
     id="defs8" />
  <sodipodi:namedview
     pagecolor="#ffffff"
     bordercolor="#666666"
     borderopacity="1"
     objecttolerance="10"
     gridtolerance="10"
     guidetolerance="10"
     inkscape:pageopacity="0"
     inkscape:pageshadow="2"
     inkscape:window-width="3200"
     inkscape:window-height="1672"
     id="namedview6"
     showgrid="false"
     inkscape:zoom="0.4609375"
     inkscape:cx="-283.52542"
     inkscape:cy="256"
     inkscape:window-x="0"
     inkscape:window-y="54"
     inkscape:window-maximized="1"
     inkscape:current-layer="svg4" />
  <path
     d="m 224.80488,35.66 -0.117,30.984 -23.719,-13.705 c -13.077,-7.54 -23.876,-13.705 -23.993,-13.705 -0.157,0 -23.287,39.82 -24.19,41.665 -0.04,0.118 16.14,9.542 35.97,21.009 l 36.089,20.773 0.039,46.063 v 46.063 l -1.06,-0.59 c -0.629,-0.314 -18.496,-10.641 -39.78,-22.933 l -38.68,-22.383 -0.118,-41.861 -0.078,-41.86 H 96.866884 v 27.723 c 0,26.232 -0.04,27.724 -0.668,27.45 -0.393,-0.119 -12.448,-7.03 -26.82,-15.316 -14.373,-8.285 -26.39,-15.158 -26.704,-15.315 -0.432,-0.157 -3.416,4.673 -11.977,19.478 -6.283,10.838 -11.702,20.263 -12.056,20.97 l -0.667,1.217 27.488,15.865 c 15.08,8.717 27.45,15.943 27.45,16.06 -0.04,0.119 -10.328,6.166 -22.895,13.392 -16.414,9.463 -22.854,13.351 -22.815,13.822 0.079,0.629 22.62,40.094 23.483,41.037 0.314,0.353 8.796,-4.36 35.735,-19.91 l 35.302996,-20.38 1.806,1.06 c 47.32,27.252 76.536,44.295 76.3,44.492 -0.51,0.55 -76.732,44.413 -77.36,44.61 -0.393,0.078 -16.061,-8.758 -36.401996,-20.5 -19.635,-11.348 -35.892,-20.576 -36.089,-20.498 -0.235,0.079 -0.942,1.021 -1.531,2.082 -4.28,7.264 -22.266,38.562 -22.462,39.033 -0.157,0.432 5.654,3.966 23.561,14.294 13.077,7.58 23.758,13.823 23.758,13.94 0,0.119 -11.938,7.108 -26.546,15.551 -14.608,8.404 -26.781,15.472 -27.096,15.708 -0.432,0.314 1.925,4.673 11.467,21.205 a 10508.571,10508.571 0 0 1 12.134,20.93 c 0.079,0.08 12.448,-6.99 27.567,-15.707 l 27.41,-15.865 0.196,26.743 0.197,26.703 24.267996,0.118 24.23,0.078 v -81.876 l 8.167,-4.673 c 4.477,-2.592 21.952,-12.684 38.877,-22.462 l 30.708,-17.75 -0.078,44.963 -0.118,44.964 -35.932,20.773 c -19.752,11.388 -35.892,20.891 -35.852,21.127 0.078,0.275 23.522,41.154 23.875,41.586 0.079,0.078 10.839,-6.048 23.955,-13.627 13.115,-7.579 23.914,-13.783 23.993,-13.783 0.078,0 0.157,14.137 0.157,31.415 v 31.416 h 48.694 v -63.656 l 1.1,0.59 c 0.588,0.313 10.995,6.282 23.129,13.312 15.276,8.796 22.187,12.605 22.423,12.29 0.706,-0.863 23.718,-41.035 23.718,-41.35 0,-0.157 -15.786,-9.424 -35.067,-20.577 l -35.107,-20.302 -0.118,-44.256 c -0.078,-35.382 0,-44.217 0.393,-44.06 0.275,0.118 17.475,10.013 38.209,21.99 l 37.698,21.795 0.118,40.88 0.079,40.878 h 48.693 l 0.079,-26.703 0.118,-26.742 26.9,15.55 c 14.804,8.522 27.016,15.473 27.173,15.433 0.157,-0.078 5.694,-9.464 12.292,-20.89 8.717,-15.08 11.859,-20.892 11.505,-21.088 -0.274,-0.197 -12.252,-7.108 -26.624,-15.394 -14.373,-8.325 -26.114,-15.276 -26.075,-15.433 0.04,-0.196 10.524,-6.4 23.365,-13.822 12.802,-7.383 23.483,-13.627 23.64,-13.784 0.315,-0.314 -22.58,-40.683 -23.64,-41.782 -0.157,-0.157 -16.493,9.07 -36.324,20.538 -34.988,20.223 -36.049,20.773 -37.07,20.262 -2.042,-1.06 -76.064,-43.863 -76.339,-44.177 -0.353,-0.315 76.928,-45.003 77.792,-44.964 0.354,0 16.297,9.032 35.46,20.106 19.124,11.074 34.95,20.106 35.146,20.106 0.354,0 24.072,-40.958 24.072,-41.547 0,-0.235 -10.328,-6.361 -22.972,-13.665 -18.182,-10.485 -22.894,-13.352 -22.501,-13.705 0.274,-0.275 12.252,-7.226 26.624,-15.512 14.373,-8.246 26.31,-15.197 26.546,-15.472 0.628,-0.628 -23.13,-41.664 -24.111,-41.625 -0.354,0 -12.488,6.872 -26.939,15.197 -14.412,8.364 -26.31,15.197 -26.389,15.197 -0.078,0 -0.157,-12.448 -0.157,-27.684 V 85.572 h -48.301 v 83.447 l -38.759,22.383 c -21.283,12.291 -38.955,22.54 -39.269,22.698 -0.432,0.275 -0.51,-7.186 -0.51,-45.16 v -45.473 l 35.342,-20.381 35.342,-20.38 -0.746,-1.218 c -0.393,-0.668 -5.812,-10.053 -12.016,-20.852 -6.205,-10.8 -11.349,-19.713 -11.428,-19.792 -0.039,-0.078 -10.484,5.89 -23.208,13.234 l -23.09,13.312 -0.118,-31.337 -0.078,-31.376 h -48.694 z"
     id="path2"
     inkscape:connector-curvature="0" />
</svg>
